<svg xmlns="http://www.w3.org/2000/svg" width="24" height="24" viewBox="0 0 24 24">
  <g id="vuesax_linear_gallery-import" data-name="vuesax/linear/gallery-import" transform="translate(-620 -252)">
    <g id="gallery-import">
      <path id="Vector" d="M4,2A2,2,0,1,1,2,0,2,2,0,0,1,4,2Z" transform="translate(627 258)" fill="none" stroke="#292d32" stroke-linecap="round" stroke-linejoin="round" stroke-width="1.5"/>
      <path id="Vector-2" data-name="Vector" d="M11,0H7C2,0,0,2,0,7v6c0,5,2,7,7,7h6c5,0,7-2,7-7V8" transform="translate(622 254)" fill="none" stroke="#292d32" stroke-linecap="round" stroke-linejoin="round" stroke-width="1.5"/>
      <path id="Vector-3" data-name="Vector" d="M0,0V6L2,4" transform="translate(638 254)" fill="none" stroke="#292d32" stroke-linecap="round" stroke-linejoin="round" stroke-width="1.5"/>
      <path id="Vector-4" data-name="Vector" d="M2,2,0,0" transform="translate(636 258)" fill="none" stroke="#292d32" stroke-linecap="round" stroke-linejoin="round" stroke-width="1.5"/>
      <path id="Vector-5" data-name="Vector" d="M0,6.953l4.93-3.31a2.253,2.253,0,0,1,2.64.14l.33.29a2.229,2.229,0,0,0,2.82,0L14.88.5A2.229,2.229,0,0,1,17.7.5l1.63,1.4" transform="translate(622.67 263.997)" fill="none" stroke="#292d32" stroke-linecap="round" stroke-linejoin="round" stroke-width="1.5"/>
      <path id="Vector-6" data-name="Vector" d="M0,0H24V24H0Z" transform="translate(620 252)" fill="none" opacity="0"/>
    </g>
  </g>
</svg>
