<svg xmlns="http://www.w3.org/2000/svg" width="24" height="24" viewBox="0 0 24 24">
  <g id="lovely" transform="translate(-748 -252)">
    <g id="Group">
      <g id="Group-2" data-name="Group">
        <path id="Vector" d="M17.86,4.99a9.616,9.616,0,0,1-.08,1.22,3.714,3.714,0,0,0-4.46,1.18A3.715,3.715,0,0,0,6.63,9.64a8.149,8.149,0,0,0,3,6.12.939.939,0,0,1-.15.06,1.875,1.875,0,0,1-1.1,0C5.79,14.93,0,11.25,0,4.99a4.958,4.958,0,0,1,8.93-3,4.958,4.958,0,0,1,8.93,3Z" transform="translate(750 255.1)" fill="none" stroke="#292d32" stroke-linecap="round" stroke-linejoin="round" stroke-width="1.5"/>
      </g>
      <g id="Group-3" data-name="Group">
        <path id="Vector-2" data-name="Vector" d="M13.37,3.74c0,4.68-4.33,7.44-6.27,8.1a1.465,1.465,0,0,1-.83,0A10.37,10.37,0,0,1,3,9.86,8.149,8.149,0,0,1,0,3.74,3.715,3.715,0,0,1,6.69,1.49,3.714,3.714,0,0,1,11.15.31,3.735,3.735,0,0,1,13.37,3.74Z" transform="translate(756.63 261)" fill="none" stroke="#292d32" stroke-linecap="round" stroke-linejoin="round" stroke-width="1.5"/>
      </g>
    </g>
    <path id="Vector-3" data-name="Vector" d="M0,0H24V24H0Z" transform="translate(748 252)" fill="none" opacity="0"/>
  </g>
</svg>
